<?xml version="1.0" standalone="no"?>
<!DOCTYPE svg PUBLIC "-//W3C//DTD SVG 20010904//EN"
 "http://www.w3.org/TR/2001/REC-SVG-20010904/DTD/svg10.dtd">
<svg version="1.0" xmlns="http://www.w3.org/2000/svg"
 width="111.000000pt" height="93.000000pt" viewBox="0 0 111.000000 93.000000"
 preserveAspectRatio="xMidYMid meet">

<g transform="translate(0.000000,93.000000) scale(0.100000,-0.100000)"
fill="#000000" stroke="none">
<path d="M744 911 c-17 -9 -55 -41 -85 -72 -30 -31 -67 -59 -84 -63 -16 -4
-43 -18 -60 -30 -16 -12 -55 -28 -85 -34 -30 -7 -68 -19 -84 -27 -16 -9 -32
-12 -35 -7 -8 13 -106 -2 -155 -22 -50 -21 -42 -30 15 -17 24 5 99 12 166 15
l123 4 11 -41 c6 -23 9 -74 7 -114 -2 -40 0 -73 4 -73 4 0 15 11 24 25 13 20
16 44 12 126 l-4 102 70 59 c74 61 139 89 241 102 41 5 46 4 28 -6 -34 -17
-39 -46 -11 -75 l23 -25 6 24 c4 13 7 38 8 56 1 45 35 44 63 -3 11 -20 33 -42
48 -50 25 -13 29 -21 32 -77 4 -50 1 -69 -14 -90 -10 -15 -21 -49 -25 -74 -4
-34 -11 -48 -25 -52 -14 -3 -18 -14 -18 -50 0 -30 -5 -49 -16 -57 -34 -24 9
-155 51 -155 18 0 45 -39 45 -63 0 -10 18 -35 40 -54 28 -26 39 -42 34 -55 -3
-10 -1 -18 5 -18 6 0 11 18 11 39 0 33 -5 43 -31 61 -26 19 -29 27 -24 51 4
18 2 36 -5 44 -7 8 -10 21 -7 29 9 23 -12 84 -34 100 -19 13 -20 16 -5 42 29
51 33 59 45 82 6 13 9 27 6 31 -2 5 2 14 10 21 16 13 21 40 8 40 -5 0 -8 38
-8 85 0 85 0 86 -32 111 -18 14 -33 32 -33 40 0 8 -4 14 -10 14 -5 0 -12 11
-16 25 -4 14 -26 37 -56 56 -42 27 -53 31 -69 21 -15 -10 -25 -9 -47 1 -23 12
-31 11 -58 -2z"/>
<path d="M908 724 c-12 -12 -9 -65 6 -114 l15 -45 -1 35 c0 58 -12 132 -20
124z"/>
<path d="M64 585 c-26 -40 -34 -96 -24 -161 14 -83 13 -88 -16 -119 -23 -25
-25 -33 -19 -78 4 -28 9 -71 10 -96 1 -25 8 -65 14 -88 l12 -43 49 0 50 0 -7
33 c-7 38 -30 67 -52 67 -12 0 -10 5 7 18 34 27 27 64 -15 76 -18 5 -33 14
-33 20 0 6 16 37 36 69 36 58 36 61 28 121 -4 33 -8 94 -9 134 0 39 -3 72 -7
72 -4 0 -15 -11 -24 -25z"/>
<path d="M677 550 c-3 -14 -9 -47 -12 -74 -10 -77 -21 -91 -81 -110 -29 -9
-70 -16 -91 -16 -21 1 -50 -2 -64 -5 -20 -5 -38 1 -70 22 -29 19 -55 28 -83
28 -34 0 -41 4 -47 25 -5 18 -7 11 -7 -25 1 -27 -5 -69 -13 -93 -12 -37 -11
-44 3 -58 25 -25 62 -10 104 41 25 31 44 45 61 45 13 0 71 -18 128 -40 109
-43 224 -117 270 -172 l27 -33 -6 35 c-3 19 -8 58 -12 85 -4 32 -21 76 -47
120 -37 63 -41 78 -47 160 -4 56 -8 81 -13 65z"/>
<path d="M100 240 c-13 -24 -13 -23 17 -39 15 -8 23 -22 25 -49 2 -25 8 -37
18 -37 27 0 22 34 -13 91 -34 53 -36 55 -47 34z"/>
<path d="M348 195 c-32 -33 -58 -63 -58 -66 0 -7 112 -19 178 -19 23 0 42 -4
42 -10 0 -5 5 -10 10 -10 26 0 4 33 -49 74 -36 28 -61 55 -63 69 -3 20 -9 15
-60 -38z"/>
<path d="M897 173 c-4 -3 -7 -16 -7 -27 0 -17 -2 -18 -10 -6 -7 11 -12 12 -21
3 -6 -6 -8 -16 -5 -22 13 -20 36 -11 47 16 6 15 16 31 22 35 8 5 7 8 -4 8 -9
0 -19 -3 -22 -7z"/>
</g>
</svg>
