<?xml version="1.0" standalone="no"?>
<!DOCTYPE svg PUBLIC "-//W3C//DTD SVG 20010904//EN"
 "http://www.w3.org/TR/2001/REC-SVG-20010904/DTD/svg10.dtd">
<svg version="1.0" xmlns="http://www.w3.org/2000/svg"
 width="191.000000pt" height="49.000000pt" viewBox="0 0 191.000000 49.000000"
 preserveAspectRatio="xMidYMid meet">

<g transform="translate(0.000000,49.000000) scale(0.100000,-0.100000)"
fill="#000000" stroke="none">
<path d="M97 423 c-2 -5 -7 -20 -11 -35 l-6 -28 89 0 c92 0 113 -8 90 -36 -15
-19 -105 -16 -101 4 1 8 -12 12 -41 12 l-43 0 -23 -87 c-13 -49 -26 -96 -28
-106 -5 -15 5 -17 116 -17 115 0 123 1 146 24 13 13 29 43 35 67 6 24 17 67
26 96 19 64 16 84 -16 100 -27 14 -226 18 -233 6z m138 -192 c10 -18 -26 -41
-65 -41 -42 0 -54 9 -44 34 4 12 20 16 54 16 27 0 51 -4 55 -9z"/>
<path d="M682 413 c-12 -22 -52 -168 -52 -188 0 -11 11 -15 39 -15 37 0 40 2
48 38 9 37 9 37 62 40 l54 3 -6 -38 c-9 -54 -27 -63 -124 -63 -80 0 -84 -1
-93 -26 -6 -14 -10 -27 -10 -30 0 -2 54 -4 119 -4 110 0 122 2 146 23 26 22
55 105 55 159 0 37 -25 48 -105 48 l-66 0 7 35 c6 35 6 35 -30 35 -23 0 -38
-6 -44 -17z"/>
<path d="M1246 358 c-35 -124 -56 -203 -56 -215 0 -8 14 -13 38 -13 l39 0 36
133 c21 73 37 136 37 140 0 4 -18 7 -40 7 -39 0 -40 0 -54 -52z"/>
<path d="M393 369 c-7 -7 -13 -23 -13 -36 0 -22 3 -23 86 -23 54 0 83 -4 79
-10 -3 -5 -38 -10 -76 -10 -39 0 -79 -5 -90 -10 -40 -22 -64 -111 -37 -138 13
-13 248 -18 248 -4 0 4 3 17 6 29 6 22 3 22 -82 25 -71 2 -89 6 -89 18 0 18
82 27 98 11 6 -6 28 -11 49 -11 35 0 38 3 47 38 21 80 22 87 7 107 -12 17 -28
20 -118 23 -74 3 -107 0 -115 -9z"/>
<path d="M950 338 c-6 -24 -18 -65 -26 -92 -27 -96 -18 -109 78 -116 l73 -5 0
-39 c0 -37 1 -39 34 -40 29 -1 36 3 48 31 16 40 17 85 1 101 -7 7 -39 12 -72
12 -90 0 -92 3 -67 92 12 41 21 80 21 86 0 7 -16 12 -40 12 -38 0 -40 -2 -50
-42z"/>
<path d="M1157 373 c-3 -5 -12 -35 -21 -68 -10 -33 -20 -68 -22 -78 -5 -16 0
-18 37 -15 l43 3 22 77 c12 43 19 80 16 83 -8 8 -70 6 -75 -2z"/>
<path d="M1380 362 c-30 -14 -38 -27 -57 -82 -25 -74 -28 -121 -11 -138 8 -8
47 -12 109 -12 88 0 100 2 122 23 21 19 57 101 57 129 0 5 -19 8 -42 6 -40 -3
-43 -5 -51 -41 -10 -43 -34 -60 -80 -55 -30 3 -32 5 -30 41 4 72 12 77 117 77
89 0 94 1 100 23 12 47 11 47 -96 47 -78 0 -112 -4 -138 -18z"/>
<path d="M1632 348 l-8 -33 85 -3 c47 -2 90 -7 94 -11 5 -5 -1 -42 -12 -83
-12 -41 -21 -77 -21 -81 0 -4 18 -7 39 -7 39 0 40 1 55 53 9 30 21 77 28 106
18 78 6 85 -137 89 l-114 4 -9 -34z"/>
<path d="M1615 278 c-3 -7 -14 -43 -24 -80 l-20 -68 43 0 44 0 20 80 20 80
-39 0 c-23 0 -42 -5 -44 -12z"/>
</g>
</svg>
